<?xml version="1.0" encoding="UTF-8"?>
<svg id="Layer_1" xmlns="http://www.w3.org/2000/svg" version="1.1" xmlns:xlink="http://www.w3.org/1999/xlink" viewBox="0 0 561.09 120.29">
  <!-- Generator: Adobe Illustrator 29.2.1, SVG Export Plug-In . SVG Version: 2.1.0 Build 116)  -->
  <defs>
    <linearGradient id="linear-gradient" x1="592.03" y1="55.33" x2="727.93" y2="55.33" gradientTransform="translate(1137.81) rotate(-180) scale(1 -1)" gradientUnits="userSpaceOnUse">
      <stop offset="0" stop-color="#81cb00"/>
      <stop offset=".83" stop-color="#12a403"/>
    </linearGradient>
    <linearGradient id="linear-gradient1" x1="653.8" y1="60.29" x2="688.5" y2="60.29" xlink:href="#linear-gradient"/>
  </defs>
  <g>
    <path d="M445.95,41.56s-.16.86-.24,2.63c-.23,3.91-.25,12.14,1.99,24.38-2.83-9.27-3.92-19.28-4.11-29.17,5.82-1.42,11.77-3.56,17.45-6.37-4.15,3.91-15.1,8.53-15.1,8.53" style="fill: #999; fill-rule: evenodd;"/>
    <path d="M505.86,41.56s.16.86.24,2.63c.23,3.91.25,12.14-1.99,24.38,2.83-9.27,3.92-19.28,4.11-29.17-5.82-1.42-11.77-3.56-17.45-6.37,4.15,3.91,15.1,8.53,15.1,8.53" style="fill: #999; fill-rule: evenodd;"/>
    <path d="M401.73,181.72h-12.74v-3.57h8.79s0-10.44,0-10.44h3.95v14.01ZM408.39,171.27c-.46.07-.79.26-.99.56-.16.24-.26.6-.33,1.07-.06.47-.09,1.21-.09,2.22s.04,1.46.12,1.84c.08.37.23.65.45.85.24.21.61.35,1.11.41.5.06,1.51.09,3.03.09,1.62,0,2.71-.04,3.27-.12.76-.1,1.22-.51,1.37-1.23.08-.38.12-1,.12-1.86,0-1.42-.07-2.36-.21-2.84-.15-.47-.45-.79-.92-.92-.41-.11-1.61-.17-3.61-.17-1.75,0-2.86.03-3.32.11ZM417.22,167.75c1.44.22,2.33,1,2.65,2.33.22.91.33,2.43.33,4.57,0,2.24-.11,3.82-.33,4.74-.33,1.33-1.21,2.11-2.65,2.33-1,.15-2.85.22-5.54.22s-4.46-.08-5.47-.22c-1.44-.22-2.33-1-2.65-2.33-.22-.91-.34-2.47-.34-4.66s.11-3.73.34-4.65c.33-1.33,1.21-2.11,2.65-2.33,1-.15,2.84-.22,5.5-.22s4.51.07,5.51.22ZM432.93,171.22h-5.3c-.86,0-1.39.01-1.57.03-.18.01-.34.05-.47.12-.18.1-.32.27-.39.49-.07.23-.11.57-.11,1.03s.03.81.1,1.04c.06.22.18.4.34.51.13.09.28.14.46.16.17.02.73.03,1.65.05h5.3s0-3.44,0-3.44ZM432.93,181.72v-3.55s-5.31,0-5.31,0c-.78,0-1.29.02-1.53.07-.25.05-.44.14-.58.31-.14.18-.23.43-.28.76-.05.33-.08.88-.08,1.66v.74h-3.71v-1.3c0-1.21.03-2,.08-2.38.05-.38.18-.7.38-.97.34-.44.91-.7,1.7-.77-.67-.12-1.16-.33-1.49-.64-.31-.29-.52-.67-.63-1.15-.11-.48-.17-1.23-.17-2.25,0-1.21.09-2.1.26-2.67.17-.56.5-1.01.97-1.33.39-.27.8-.43,1.22-.48.43-.05,1.7-.07,3.83-.08h9.11v14.01h-3.76ZM452.52,171.28h-5.51s0,10.43,0,10.43h-3.95v-10.43s-5.51,0-5.51,0v-3.57h14.97v3.57ZM470.59,181.72h-3.83s.08-10.46.08-10.46h-.41s-6.5,10.46-6.5,10.46h-6.55v-14.01h3.83s-.09,10.46-.09,10.46h.39s6.48-10.46,6.48-10.46h6.6v14.01ZM477.25,171.27c-.46.07-.79.26-.99.56-.16.24-.26.6-.33,1.07-.06.47-.09,1.21-.09,2.22,0,.85.04,1.46.12,1.84.08.37.22.65.45.85.24.21.61.35,1.11.41.5.06,1.51.09,3.03.09,1.62,0,2.71-.04,3.27-.12.76-.1,1.22-.51,1.37-1.23.08-.38.12-1,.12-1.86,0-1.42-.07-2.36-.21-2.84-.15-.47-.45-.79-.91-.92-.41-.11-1.61-.17-3.61-.17-1.75,0-2.86.03-3.32.11ZM486.08,167.75c1.44.22,2.33,1,2.65,2.33.22.91.33,2.43.33,4.57,0,2.24-.11,3.82-.33,4.74-.33,1.33-1.21,2.11-2.65,2.33-1,.15-2.85.22-5.54.22-2.64,0-4.46-.08-5.47-.22-1.44-.22-2.33-1-2.65-2.33-.22-.91-.34-2.47-.34-4.66s.11-3.73.34-4.65c.33-1.33,1.21-2.11,2.65-2.33,1-.15,2.84-.22,5.5-.22,2.67,0,4.51.07,5.51.22ZM494.31,177.98c.17.18.49.3.97.36.48.05,1.44.08,2.89.08,1.17,0,1.99-.03,2.45-.09.46-.06.8-.19,1.01-.37.22-.19.38-.5.46-.93.08-.44.12-1.18.12-2.24,0-1.06-.04-1.83-.13-2.31-.09-.48-.24-.83-.47-1.03-.18-.17-.51-.29-.96-.34-.46-.06-1.27-.09-2.45-.09s-2.07.03-2.66.09c-.58.06-.95.17-1.1.31-.1.11-.17.23-.2.39-.03.16-.06.47-.08.93h-3.76c-.01-.4-.02-.64-.02-.69,0-1.15.11-2.02.34-2.61.23-.59.63-1.04,1.19-1.34.43-.22,1.01-.38,1.73-.46.72-.08,1.88-.12,3.48-.12,3.19,0,5.31.13,6.37.4,1.05.26,1.75.84,2.09,1.72.16.4.26.96.32,1.67.05.72.08,1.89.08,3.51s-.03,2.81-.08,3.45c-.07.79-.21,1.4-.44,1.86-.22.45-.56.81-1.02,1.07-.51.3-1.26.49-2.26.6-1,.1-2.67.16-5.03.16s-3.82-.13-4.73-.37c-.91-.25-1.53-.71-1.84-1.39-.28-.61-.43-1.45-.43-2.53,0-.2.01-.64.04-1.32h3.77c.01.87.13,1.43.36,1.66ZM526.17,171.28h-5.51s0,10.43,0,10.43h-3.95v-10.43s-5.51,0-5.51,0v-3.57h14.97v3.57ZM541.89,177.74c0,1.01-.09,1.76-.27,2.25-.18.49-.5.89-.97,1.19-.45.28-1.12.48-2,.58-.89.11-2.26.17-4.12.17-2.22,0-3.74-.05-4.56-.13-.76-.08-1.35-.24-1.77-.47-.42-.23-.74-.58-.98-1.06-.31-.64-.47-1.62-.47-2.94,0-1.01.09-1.78.28-2.32.18-.54.51-.96.96-1.26.4-.27.94-.44,1.61-.53.67-.09,2.01-.17,4.01-.24,2.37-.09,3.7-.17,3.99-.26.35-.11.53-.41.53-.9,0-.51-.17-.82-.53-.94-.35-.11-1.32-.17-2.92-.17-1.33,0-2.2.01-2.61.05-.41.03-.7.1-.86.21-.13.09-.22.21-.27.35-.05.14-.07.41-.09.8h-3.65v-.66c0-1.27.21-2.18.64-2.71.42-.54,1.2-.89,2.34-1.07.73-.12,2.01-.17,3.83-.17,2.57,0,4.27.07,5.11.21.84.14,1.46.47,1.86.97.53.65.8,1.77.8,3.35,0,1.41-.23,2.41-.69,3.02-.27.36-.65.62-1.14.78-.48.16-1.18.26-2.08.3-.47.01-1.46.06-3,.14-1.51.08-2.49.13-2.95.13-.6.01-1,.09-1.2.23-.19.14-.29.42-.29.84,0,.57.14.93.42,1.06.18.09.44.14.76.16.32.02,1.28.03,2.87.03,1.52-.02,2.42-.03,2.71-.06.28-.02.52-.1.7-.23.25-.2.38-.65.37-1.35h3.65v.66ZM556.39,181.72h-13.76v-3.36h10.05s0-2.27,0-2.27h-9.48v-3.07h9.48s0-2.02,0-2.02h-9.98v-3.3h13.69v14.01ZM568.7,171.22h-4.71c-1.14.02-1.8.06-1.97.14-.22.1-.39.27-.48.5-.09.23-.13.6-.13,1.09,0,.5.04.87.11,1.1.07.23.2.41.4.53.15.09.32.14.51.16.19.02.71.04,1.57.05h4.71s0-3.57,0-3.57ZM568.7,181.72v-3.42s-4.74,0-4.74,0c-1.47,0-2.47-.03-3-.1-.75-.1-1.35-.27-1.78-.52-.44-.24-.77-.6-1.02-1.08-.36-.69-.53-1.91-.53-3.64,0-1.82.22-3.09.65-3.79.43-.71,1.26-1.16,2.48-1.34.48-.07,1.57-.11,3.24-.11h8.47v14.01h-3.76Z" style="display: none; fill: gray;"/>
    <path d="M563.01,158.31h-29.35v-7.17h21.44s0-4.84,0-4.84h-20.21v-6.54h20.21s0-4.3,0-4.3h-21.28v-7.03h29.19v29.88ZM593.09,135.92h-11.11c-2.46,0-4.1.07-4.93.23-.83.15-1.46.5-1.91,1.04-.38.49-.65,1.21-.81,2.14-.15.93-.23,2.32-.23,4.18s.09,3.24.27,4.16c.18.92.49,1.59.93,2.01.4.38,1.08.65,2.06.8.97.16,2.49.23,4.55.23h11.18s0-14.78,0-14.78ZM581.96,158.31c-2.96,0-5.09-.05-6.39-.14-1.3-.09-2.52-.29-3.66-.58-2.45-.61-4.06-2.23-4.85-4.86-.34-1.12-.57-2.37-.69-3.74-.12-1.37-.18-3.39-.18-6.06,0-2.44.05-4.25.15-5.46.1-1.2.3-2.33.6-3.38.8-2.77,2.52-4.46,5.16-5.08,1.13-.26,2.22-.42,3.26-.47,1.04-.06,3.25-.09,6.62-.09h19.02v29.88h-19.04Z" style="display: none; fill: #5b9c00;"/>
    <path d="M379.47,135.92h-11.29c-1.84.01-2.97.03-3.35.06-.39.03-.72.11-1.01.26-.4.22-.67.57-.84,1.04-.16.49-.23,1.22-.23,2.19,0,.99.07,1.73.21,2.22.14.49.38.85.73,1.1.27.19.59.31.97.34.38.04,1.55.08,3.51.12h11.31s0-7.34,0-7.34ZM379.47,158.31v-7.57s-11.33,0-11.33,0c-1.66,0-2.76.04-3.28.14-.53.09-.94.32-1.23.66-.29.38-.49.92-.61,1.63-.11.7-.16,1.89-.16,3.54v1.59h-7.91v-2.77c0-2.58.06-4.28.17-5.08.12-.81.39-1.5.81-2.07.73-.95,1.94-1.49,3.63-1.64-1.42-.25-2.48-.7-3.19-1.35-.65-.62-1.1-1.43-1.34-2.45-.24-1.02-.36-2.63-.36-4.8,0-2.58.19-4.48.56-5.69.37-1.2,1.06-2.15,2.06-2.84.84-.58,1.71-.92,2.6-1.02.9-.09,3.63-.15,8.18-.16h19.42v29.88h-8.03ZM419.36,158.31h-29.35v-7.17h21.44s0-4.84,0-4.84h-20.21v-6.54h20.21s0-4.3,0-4.3h-21.28v-7.03h29.19v29.88ZM448.39,158.31h-27.17v-7.61h18.75s0-22.26,0-22.26h8.42v29.88ZM477.41,158.31h-27.17v-7.61h18.75s0-22.26,0-22.26h8.43v29.88ZM489.54,158.31h-8.43v-29.88h8.43v29.88ZM527.04,158.31h-8.03v-11.42s-4.4,0-4.4,0l-11.8,11.42h-12.21s16.53-15.21,16.53-15.21l-15.23-14.85h12.28s10.43,11.02,10.43,11.02h4.4s0-10.84,0-10.84h8.03v29.88Z" style="display: none; fill: #333;"/>
    <path d="M484.97,75.53c-10.6,0-12.45-6.69-12.45-6.69,0,0,2.17,5.34,12.53,5.32,12.94-.03,14.28-6.93,14.28-6.93,0,0,.59,8.31-14.37,8.3ZM471.32,65.96c.03.26.08.55.16.84-.55.25-1.1.51-1.65.76-2.67,1.23-5.43,2.44-8.34,2.42-8.75-.06-8.29-4.49-7.95-5.39.18-.49.54-.78.92-1.05,1.42-1.01,4.2-1.21,4.2-1.21,0,0-2.99.49-4.13,1.85-.29.34-.5.78-.35,1.26.14.44.5.8.85,1.04,1.63,1.13,3.71,1.07,5.51.68,2.04-.44,4.02-1.29,5.94-2.16,1.62-.74,3.21-1.54,4.82-2.32-.1,1.1-.11,2.21.02,3.28ZM472.45,36.12c.23-.11.49-.05.59.23.09.25-.05.52-.29.59-.65.18-1.08.49-1.08.49,0,0,.11-.98.78-1.31ZM469.24,38.71c.75.49,2.02.19,2.02.19,0,0,.98,1.83,1.36,2.86.56,1.46.93,2.82,1.17,4.07.9,4.62.48,7.73.48,7.73,0,0,1.13-3.72.36-7.95-.34-1.86-.8-3.69-1.51-5.38.65-.12,8.96,9.53,7.28,11.91-1.67,2.38-6.63,7.66-5.76,11.49.94,4.07,6.21,5.79,11.28,5.89,4.2.09,7.78-.57,9.16-1,2.87-.89,4.67-3,1.87-6.18-2.32-2.63-9.28-3.73-12.19-3.6-3.97.17-5.99.79-8.63,1.81,1.25-3.27,4.23-6.29,5.29-7.92,2.78-4.28,6.37-9.87,2.91-14.41-2.05-2.69-6.86-1.62-9.06-1.22-1.69.28-3,.8-5.02,1.1-1.02.15-1.03-.98-.33-1.6,1.15-1.01,2.43-1.06,2.43-1.06,0,0-1.94-.03-3.04.84-.87.69-.9,1.9-.09,2.42ZM484.67,63.23c4.15-.08,8.09.54,10.71,2,1.31.73.72,1.89-.95,2.25-2.77.6-5.65.79-8.31.65-4.7-.24-8.68-1.49-9.98-3.31,1.07-.49,3.35-1.5,8.53-1.6Z" style="fill: #333;"/>
    <path d="M475.9,43.84s.97-.1,1.72.43c.54-1.3,1.71-3.08,4.04-3.28,3.71-.33,6.02.2,10.31-4.24,0,0-2.2,4.32-5.62,5.02-3.43.69-6.99-.04-7.96,3.63.47,1.75.9,1.84,1.51,3.31.61,1.47,1.37,3.06.94,5.06-.43,2,3.06,2.08,4.07,1.47,1.01-.61,1.98.08,1.98.08,0,0,2.27-7.96,7.39-7.96,0,0-3.68,1.35-4.5,4.08-.83,2.73-.68,5.67-1.98,5.59-1.3-.08-3.1.29-2.88,1.43.21,1.15,1.37,3.06,5.62,4.41,0,0,3.71,12.53,8.1,14.4,0,0-4.97-.57-8.94-12.4l-3.64-.93s.79,3.06.47,6.73c0,0,2.59,2.12,4.14,2.21,0,0-1.66,5.67-1.05,11.83,0,0-.18,3.06,1.55,3.31,0,0-2.89-.77-2.38-3.43,0,0-.76-6.36-.07-10.36,0,0-2.05.16-2.88-.57-.68,8.33-5.66,13.71-9.94,16.89-4.28-3.18-9.26-8.56-9.94-16.89-.83.73-2.88.57-2.88.57.68,4-.07,10.36-.07,10.36.51,2.66-2.38,3.43-2.38,3.43,1.73-.24,1.55-3.31,1.55-3.31.61-6.16-1.05-11.83-1.05-11.83,1.55-.08,4.14-2.21,4.14-2.21-.33-3.67.47-6.73.47-6.73l-3.64.93c-3.96,11.83-8.94,12.4-8.94,12.4,4.4-1.88,8.11-14.4,8.11-14.4,4.25-1.35,5.4-3.26,5.62-4.41.22-1.14-1.59-1.51-2.88-1.43-1.3.08-1.16-2.85-1.98-5.59-.83-2.74-4.5-4.08-4.5-4.08,5.12,0,7.39,7.96,7.39,7.96,0,0,.97-.69,1.98-.08,1.01.61,4.51.53,4.07-1.47-.43-2,.33-3.59.94-5.06.61-1.47,1.04-1.55,1.51-3.31-.98-3.67-4.53-2.94-7.96-3.63-3.42-.69-5.62-5.02-5.62-5.02,4.29,4.45,6.59,3.92,10.3,4.24,2.33.2,3.5,1.99,4.04,3.28.75-.53,1.72-.43,1.72-.43" style="display: none; fill: #333; fill-rule: evenodd;"/>
    <path d="M499.21,99.05c-2.56-.66-5.17-1.44-7.84-2.33-4.3,4.14-9.42,7.77-15.47,10.81-16.21-8.13-25.75-20.52-30.84-35.86-3.23-2.52-6.28-5.11-9.13-7.74,4.63,22.5,16.22,41.11,39.97,51.94,9.67-4.4,17.31-10.1,23.3-16.82M433.48,29.54c-.22,6.8-.11,13.45.42,19.88,2.36,2.64,4.95,5.26,7.76,7.84-1.03-6.64-1.49-13.67-1.49-21.02,12.41-2.54,25.91-8.69,35.74-17.59,9.83,8.9,23.34,15.05,35.74,17.59-.01,20.58-3.54,38.67-13.47,52.59,2.54.69,5.02,1.26,7.42,1.71,10.52-16.72,13.47-38.03,12.73-61-15.01-1.66-32.67-9.78-42.42-21.24-9.75,11.46-27.42,19.58-42.42,21.24Z" style="fill: #333; fill-rule: evenodd;"/>
    <path d="M428.01,6.3c-10.16,1.94-16.8,7.39-17.95,16.23-2.67,20.62,25.5,51.84,62.93,69.73,37.43,17.9,69.94,15.69,72.62-4.92.89-6.82-1.61-14.81-6.7-23.09,2.2,5.12,3.15,9.99,2.58,14.35-2.44,18.84-32.16,20.86-66.38,4.5-34.22-16.36-59.97-44.9-57.52-63.74.8-6.19,4.55-10.56,10.42-13.06" style="fill: url(#linear-gradient); fill-rule: evenodd;"/>
    <path d="M517.24,55.81c.65-4.95,1.01-10.06,1.14-15.29,11.55,11.18,18.81,23.25,18.81,33.22,0,13.25-12.84,19.22-31.58,16.78l.42-.68c11.38-.39,18.69-5.57,18.69-15.01,0-5.78-2.75-12.38-7.49-19.02M462.87,19.19c-20.53-5.56-35.6-.78-35.6,12.76,0,5.44,2.43,11.59,6.66,17.82l.02.26c-7.4-8.9-11.79-17.93-11.79-25.69,0-17.28,21.82-22.18,50.07-12.21-2.78,2.58-5.94,4.95-9.35,7.05Z" style="fill: #999; fill-rule: evenodd;"/>
    <polygon points="484.02 61.4 475.55 73.28 449.31 47.31 475.75 65.72 484.02 61.4" style="display: none; fill: url(#linear-gradient1); fill-rule: evenodd;"/>
  </g>
  <g>
    <g style="display: none;">
      <path d="M682.92,221.6c-6.17,0-10.81-2.13-13.91-6.38-3.1-4.25-4.66-9.98-4.66-17.17v-28.43c0-.69.17-1.28.5-1.78.33-.5.73-.75,1.19-.75h9.25c.46,0,.85.25,1.19.75.33.5.5,1.1.5,1.78v27.96c0,2.57.59,4.32,1.78,5.25,1.19.94,2.55,1.41,4.09,1.41s2.71-.53,3.63-1.6c.92-1.06,1.38-2.75,1.38-5.07v-5.25c0-2.31-.17-4.27-.5-5.86-.33-1.59-.92-2.39-1.75-2.39-.46,0-.93.08-1.41.23-.48.16-.84.3-1.09.42-.54.25-1.02.17-1.44-.23-.42-.41-.62-1.08-.62-2.02v-10.6c0-.69.11-1.39.34-2.11.23-.72.61-1.3,1.16-1.74.42-.31,1.05-.59,1.91-.84.85-.25,2.11-.38,3.78-.38,3.42,0,6.07.84,7.97,2.53,1.9,1.69,3.23,4.19,4,7.51.77,3.32,1.16,7.38,1.16,12.2v2.72c0,1.19,0,2.38.03,3.57.02,1.19,0,2.1-.03,2.72-.17,4.69-.92,8.81-2.25,12.34-1.33,3.54-3.33,6.29-6,8.26-2.67,1.97-6.06,2.96-10.19,2.96Z" style="fill: #5b9c00;"/>
      <path d="M707.61,198.14c-.46,0-.85-.25-1.19-.75-.33-.5-.5-1.09-.5-1.78v-25.99c0-.69.17-1.28.5-1.78.33-.5.73-.75,1.19-.75h11.19c.46,0,.85.25,1.19.75.33.5.5,1.1.5,1.78v25.99c0,.69-.17,1.28-.5,1.78-.33.5-.73.75-1.19.75h-11.19Z" style="fill: #5b9c00;"/>
      <path d="M726.93,220.66c-.46,0-.85-.25-1.19-.75-.33-.5-.5-1.09-.5-1.78v-11.35c0-.69.17-1.28.5-1.78.33-.5.73-.75,1.19-.75h14.07v-13.61c0-2.38-.39-4.14-1.16-5.3-.77-1.16-1.93-1.74-3.47-1.74h-8.81c-.46,0-.85-.25-1.19-.75-.33-.5-.5-1.09-.5-1.78v-11.45c0-.69.17-1.28.5-1.78.33-.5.73-.75,1.19-.75h9.13c3.88,0,7.22.72,10.03,2.16,2.81,1.44,4.99,3.88,6.53,7.32,1.54,3.44,2.31,8.2,2.31,14.26v13.42h2.06c.46,0,.85.25,1.19.75.33.5.5,1.1.5,1.78v11.35c0,.69-.17,1.28-.5,1.78-.33.5-.73.75-1.19.75h-30.69Z" style="fill: #5b9c00;"/>
    </g>
    <g style="display: none;">
      <path d="M406.55,220.66c-.46,0-.85-.23-1.19-.7-.33-.47-.5-1.05-.5-1.74v-27.68c0-2.38-.39-4.14-1.16-5.3-.77-1.16-1.93-1.74-3.47-1.74h-16c-.46,0-.85-.25-1.19-.75-.33-.5-.5-1.09-.5-1.78v-11.35c0-.69.17-1.28.5-1.78.33-.5.73-.75,1.19-.75h16.32c5.79,0,10.28,1.82,13.47,5.44,3.19,3.63,4.78,9.76,4.78,18.39v27.21c0,.69-.17,1.28-.5,1.78-.33.5-.73.75-1.19.75h-10.56ZM384.23,220.66c-.46,0-.85-.25-1.19-.75-.33-.5-.5-1.09-.5-1.78v-24.58c0-.69.17-1.28.5-1.78.33-.5.73-.75,1.19-.75h10.56c.46,0,.85.25,1.19.75.33.5.5,1.09.5,1.78v24.58c0,.69-.17,1.28-.5,1.78-.33.5-.73.75-1.19.75h-10.56Z" style="fill: #5b9c00;"/>
      <path d="M441.12,220.66c-.46,0-.85-.23-1.19-.7-.33-.47-.5-1.05-.5-1.74v-27.68c0-2.38-.39-4.14-1.16-5.3-.77-1.16-1.93-1.74-3.47-1.74h-10.44c-.46,0-.85-.25-1.19-.75-.33-.5-.5-1.09-.5-1.78v-11.35c0-.69.17-1.28.5-1.78.33-.5.73-.75,1.19-.75h10.81c3.88,0,7.17.67,9.88,2.02,2.71,1.35,4.77,3.68,6.19,6.99,1.42,3.32,2.13,7.95,2.13,13.89v28.15c0,.69-.17,1.28-.5,1.78-.33.5-.73.75-1.19.75h-10.56Z" style="fill: #5b9c00;"/>
      <path d="M459.56,220.66c-.46,0-.85-.25-1.19-.75-.33-.5-.5-1.09-.5-1.78v-11.35c0-.69.17-1.28.5-1.78.33-.5.73-.75,1.19-.75h14.07v-13.61c0-2.38-.39-4.14-1.16-5.3-.77-1.16-1.93-1.74-3.47-1.74h-8.81c-.46,0-.85-.25-1.19-.75-.33-.5-.5-1.09-.5-1.78v-11.45c0-.69.17-1.28.5-1.78.33-.5.73-.75,1.19-.75h9.13c3.88,0,7.22.72,10.03,2.16,2.81,1.44,4.99,3.88,6.53,7.32,1.54,3.44,2.31,8.2,2.31,14.26v13.42h2.06c.46,0,.85.25,1.19.75.33.5.5,1.1.5,1.78v11.35c0,.69-.17,1.28-.5,1.78-.33.5-.73.75-1.19.75h-30.69Z" style="fill: #5b9c00;"/>
      <path d="M494.25,183.5c-.46,0-.85-.25-1.19-.75-.33-.5-.5-1.09-.5-1.78v-11.35c0-.69.17-1.28.5-1.78.33-.5.73-.75,1.19-.75h28.69c.46,0,.85.25,1.19.75.33.5.5,1.1.5,1.78v11.35c0,.63-.15,1.21-.44,1.74-.29.53-.71.8-1.25.8h-28.69ZM506.88,220.66c-.92,0-1.38-.69-1.38-2.06v-24.77c0-4.25.28-7.46.84-9.62s1.61-3.24,3.16-3.24h13.32c-1.04,0-1.89,1.38-2.53,4.13-.65,2.75-.97,6.1-.97,10.04v23.46c0,.63-.23,1.13-.69,1.5-.46.38-.9.56-1.31.56h-10.44Z" style="fill: #5b9c00;"/>
      <path d="M553.02,220.66c-.46,0-.85-.23-1.19-.7-.33-.47-.5-1.05-.5-1.74v-27.68c0-2.38-.39-4.14-1.16-5.3-.77-1.16-1.93-1.74-3.47-1.74h-16c-.46,0-.85-.25-1.19-.75-.33-.5-.5-1.09-.5-1.78v-11.35c0-.69.17-1.28.5-1.78.33-.5.73-.75,1.19-.75h16.32c5.79,0,10.28,1.82,13.47,5.44,3.19,3.63,4.78,9.76,4.78,18.39v27.21c0,.69-.17,1.28-.5,1.78-.33.5-.73.75-1.19.75h-10.56ZM530.7,220.66c-.46,0-.85-.25-1.19-.75-.33-.5-.5-1.09-.5-1.78v-24.58c0-.69.17-1.28.5-1.78.33-.5.73-.75,1.19-.75h10.56c.46,0,.85.25,1.19.75.33.5.5,1.09.5,1.78v24.58c0,.69-.17,1.28-.5,1.78-.33.5-.73.75-1.19.75h-10.56Z" style="fill: #5b9c00;"/>
      <path d="M584.09,232.29c-.46,0-.85-.25-1.19-.75-.33-.5-.5-1.09-.5-1.78v-60.14c0-.69.17-1.28.5-1.78.33-.5.73-.75,1.19-.75h10.56c.46,0,.85.25,1.19.75.33.5.5,1.1.5,1.78v60.14c0,.69-.17,1.28-.5,1.78-.33.5-.73.75-1.19.75h-10.56Z" style="fill: #5b9c00;"/>
      <path d="M603.9,220.66c-.46,0-.85-.25-1.19-.75-.33-.5-.5-1.09-.5-1.78v-48.51c0-.69.17-1.28.5-1.78.33-.5.73-.75,1.19-.75h11.19c.46,0,.85.25,1.19.75.33.5.5,1.1.5,1.78v48.51c0,.69-.17,1.28-.5,1.78-.33.5-.73.75-1.19.75h-11.19Z" style="fill: #5b9c00;"/>
      <path d="M624.35,220.66c-.46,0-.85-.25-1.19-.75-.33-.5-.5-1.09-.5-1.78v-48.51c0-.69.17-1.28.5-1.78.33-.5.73-.75,1.19-.75h16.63c3.96,0,7.29.7,10,2.11,2.71,1.41,4.76,3.85,6.16,7.32,1.4,3.47,2.09,8.27,2.09,14.4v27.21c0,.69-.17,1.28-.5,1.78-.33.5-.73.75-1.19.75h-10.56c-.46,0-.85-.23-1.19-.7-.33-.47-.5-1.05-.5-1.74v-27.68c0-2.38-.39-4.14-1.16-5.3-.77-1.16-1.93-1.74-3.47-1.74h-4.06v34.62c0,.69-.17,1.28-.5,1.78-.33.5-.73.75-1.19.75h-10.56Z" style="fill: #5b9c00;"/>
    </g>
  </g>
  <g style="display: none;">
    <path d="M396.04,256.91h3.29c1.37,0,2.29.18,2.75.54.47.36.58.73.32,1.1-.4.61-.71,1.24-.94,1.88-.23.64-.4,1.31-.49,2.02-.09.71-.14,1.5-.14,2.38l.65,10.28c0,.29-.14.55-.43.76-.29.21-.63.32-1.03.32h-14.15c-.4,0-.74-.11-1.03-.32-.29-.21-.43-.47-.43-.76v-4.44c0-.29.14-.55.43-.76.29-.21.63-.32,1.03-.32h4.54v-4.76c0-.67.04-1.35.14-2.04.09-.69.24-1.4.46-2.12.22-.72.52-1.43.92-2.12.25-.43.67-.81,1.24-1.14.58-.33,1.53-.5,2.86-.5ZM387.73,260.35c-.4,0-.74-.11-1.03-.32-.29-.21-.43-.47-.43-.76v-4.84c0-.29.14-.55.43-.76.29-.21.63-.32,1.03-.32h17.44c3.35,0,6.19.32,8.53.96,2.34.64,4.12,1.67,5.35,3.1,1.22,1.43,1.84,3.34,1.84,5.74v11.96c0,.29-.14.55-.43.76-.29.21-.63.32-1.03.32h-9.13c-.4,0-.74-.1-1.03-.3-.29-.2-.43-.45-.43-.74v-11.8c0-1.01-.33-1.77-1-2.26-.67-.49-1.67-.74-3-.74h-17.12Z" style="fill: gray;"/>
    <path d="M427.09,276.19c-.4,0-.74-.11-1.03-.32-.29-.21-.43-.47-.43-.76v-20.68c0-.29.14-.55.43-.76.29-.21.63-.32,1.03-.32h9.67c.4,0,.74.11,1.03.32.29.21.43.47.43.76v20.68c0,.29-.14.55-.43.76-.29.21-.63.32-1.03.32h-9.67Z" style="fill: gray;"/>
    <path d="M444.75,276.19c-.4,0-.74-.11-1.03-.32-.29-.21-.43-.47-.43-.76v-20.68c0-.29.14-.55.43-.76.29-.21.63-.32,1.03-.32h14.36c3.42,0,6.3.3,8.64.9,2.34.6,4.11,1.64,5.32,3.12,1.21,1.48,1.81,3.53,1.81,6.14v11.6c0,.29-.14.55-.43.76-.29.21-.63.32-1.03.32h-9.13c-.4,0-.74-.1-1.03-.3-.29-.2-.43-.45-.43-.74v-11.8c0-1.01-.33-1.77-1-2.26-.67-.49-1.67-.74-3-.74h-3.51v14.76c0,.29-.14.55-.43.76-.29.21-.63.32-1.03.32h-9.13Z" style="fill: gray;"/>
    <path d="M481.1,276.19c-.4,0-.74-.11-1.03-.32-.29-.21-.43-.47-.43-.76v-20.68c0-.29.14-.55.43-.76.29-.21.63-.32,1.03-.32h9.67c.4,0,.74.11,1.03.32.29.21.43.47.43.76v20.68c0,.29-.14.55-.43.76-.29.21-.63.32-1.03.32h-9.67Z" style="fill: gray;"/>
    <path d="M513.01,276.59c-5.33,0-9.33-.91-12.02-2.72-2.68-1.81-4.02-4.25-4.02-7.32v-12.12c0-.29.14-.55.43-.76.29-.21.63-.32,1.03-.32h7.99c.4,0,.74.11,1.03.32.29.21.43.47.43.76v11.92c0,1.09.51,1.84,1.54,2.24,1.03.4,2.2.6,3.54.6s2.34-.23,3.13-.68c.79-.45,1.19-1.17,1.19-2.16v-2.24c0-.99-.14-1.82-.43-2.5-.29-.68-.79-1.02-1.51-1.02-.4,0-.8.03-1.21.1-.41.07-.73.13-.95.18-.47.11-.88.07-1.24-.1-.36-.17-.54-.46-.54-.86v-4.52c0-.29.1-.59.3-.9.2-.31.53-.55,1-.74.36-.13.91-.25,1.65-.36.74-.11,1.83-.16,3.27-.16,2.95,0,5.25.36,6.89,1.08,1.64.72,2.79,1.79,3.46,3.2.67,1.41,1,3.15,1,5.2v1.16c0,.51,0,1.01.03,1.52.02.51,0,.89-.03,1.16-.14,2-.79,3.75-1.94,5.26-1.15,1.51-2.88,2.68-5.18,3.52-2.3.84-5.24,1.26-8.8,1.26Z" style="fill: gray;"/>
    <path d="M533.26,276.19c-.4,0-.74-.11-1.03-.32-.29-.21-.43-.47-.43-.76v-4.84c0-.29.14-.55.43-.76.29-.21.63-.32,1.03-.32h12.15v-5.8c0-1.01-.33-1.77-1-2.26-.67-.49-1.67-.74-3-.74h-7.61c-.4,0-.74-.11-1.03-.32-.29-.21-.43-.47-.43-.76v-4.88c0-.29.14-.55.43-.76.29-.21.63-.32,1.03-.32h7.88c3.35,0,6.24.31,8.67.92s4.31,1.65,5.64,3.12c1.33,1.47,2,3.49,2,6.08v5.72h1.78c.4,0,.74.11,1.03.32.29.21.43.47.43.76v4.84c0,.29-.14.55-.43.76-.29.21-.63.32-1.03.32h-26.51Z" style="fill: gray;"/>
    <path d="M586.02,256.91h3.29c1.37,0,2.29.18,2.75.54.47.36.58.73.32,1.1-.4.61-.71,1.24-.95,1.88-.23.64-.4,1.31-.49,2.02-.09.71-.13,1.5-.13,2.38l.65,10.28c0,.29-.14.55-.43.76-.29.21-.63.32-1.03.32h-14.15c-.4,0-.74-.11-1.03-.32-.29-.21-.43-.47-.43-.76v-4.44c0-.29.14-.55.43-.76.29-.21.63-.32,1.03-.32h4.54v-4.76c0-.67.04-1.35.13-2.04.09-.69.24-1.4.46-2.12.22-.72.52-1.43.92-2.12.25-.43.67-.81,1.24-1.14.58-.33,1.53-.5,2.86-.5ZM577.71,260.35c-.4,0-.74-.11-1.03-.32-.29-.21-.43-.47-.43-.76v-4.84c0-.29.14-.55.43-.76.29-.21.63-.32,1.03-.32h17.44c3.35,0,6.19.32,8.53.96,2.34.64,4.12,1.67,5.35,3.1,1.22,1.43,1.84,3.34,1.84,5.74v11.96c0,.29-.14.55-.43.76-.29.21-.63.32-1.03.32h-9.13c-.4,0-.74-.1-1.03-.3-.29-.2-.43-.45-.43-.74v-11.8c0-1.01-.33-1.77-1-2.26s-1.67-.74-3-.74h-17.12Z" style="fill: gray;"/>
    <path d="M617.07,276.19c-.4,0-.74-.11-1.03-.32-.29-.21-.43-.47-.43-.76v-20.68c0-.29.14-.55.43-.76.29-.21.63-.32,1.03-.32h9.67c.4,0,.74.11,1.03.32.29.21.43.47.43.76v20.68c0,.29-.14.55-.43.76-.29.21-.63.32-1.03.32h-9.67Z" style="fill: gray;"/>
    <path d="M654.33,276.19c-.68,0-1.2-.13-1.54-.38-.34-.25-.57-.43-.67-.54l-19.06-20.6c-.11-.11-.16-.25-.16-.44,0-.24.12-.45.35-.62.23-.17.51-.26.84-.26h9.02c.72,0,1.24.13,1.57.4.32.27.56.47.7.6l19.44,20.52c.11.11.16.19.16.26v.18c0,.24-.12.45-.35.62-.24.17-.51.26-.84.26h-9.45ZM634.46,276.19c-.4,0-.74-.12-1.03-.36-.29-.24-.43-.51-.43-.8v-4.28c0-1.71.2-3.13.59-4.28.4-1.15,1.05-2.17,1.97-3.06.92-.89,2.19-1.79,3.81-2.7l5.62,6c-.54.37-.92.81-1.13,1.3-.22.49-.34.97-.38,1.42s-.05.84-.05,1.16v4.44c0,.35-.14.63-.43.84-.29.21-.63.32-1.03.32h-7.51ZM657.3,268.07l-5.94-5.88c.65-.27,1.11-.6,1.38-1,.27-.4.44-.81.51-1.22s.11-.75.11-1.02v-4.44c0-.35.14-.63.43-.84.29-.21.63-.32,1.03-.32h8.05c.4,0,.74.12,1.03.36.29.24.43.51.43.8v4.6c0,1.04-.21,2.09-.62,3.14-.41,1.05-1.12,2.07-2.13,3.06s-2.43,1.91-4.27,2.76Z" style="fill: gray;"/>
    <path d="M671.88,276.19c-.4,0-.74-.11-1.03-.32-.29-.21-.43-.47-.43-.76v-5.04c0-.29.14-.55.43-.76.29-.21.63-.32,1.03-.32h11.29l-14.85-14.28c-.04-.05-.09-.13-.16-.24-.07-.11-.11-.21-.11-.32,0-.24.12-.43.35-.58.23-.15.51-.22.84-.22h9.56c.61,0,1.06.1,1.35.3.29.2.49.35.59.46l15.34,15.04c.18.16.36.34.54.54.18.2.27.49.27.86v4.56c0,.29-.14.55-.43.76-.29.21-.63.32-1.03.32h-23.54ZM692.14,266.47l-5.99-5.88c.76-.64,1.25-1.36,1.49-2.16.23-.8.35-1.63.35-2.48v-1.44c0-.35.14-.63.43-.84.29-.21.63-.32,1.03-.32h8.05c.4,0,.74.12,1.03.36.29.24.43.51.43.8v3.16c0,1.63-.58,3.22-1.73,4.78-1.15,1.56-2.84,2.9-5.08,4.02Z" style="fill: gray;"/>
    <path d="M705.1,276.19c-.4,0-.74-.11-1.03-.32-.29-.21-.43-.47-.43-.76v-20.68c0-.29.14-.55.43-.76.29-.21.63-.32,1.03-.32h9.67c.4,0,.74.11,1.03.32.29.21.43.47.43.76v20.68c0,.29-.14.55-.43.76-.29.21-.63.32-1.03.32h-9.67Z" style="fill: gray;"/>
    <path d="M732.26,256.91h3.29c1.37,0,2.29.18,2.75.54.47.36.58.73.32,1.1-.4.61-.71,1.24-.95,1.88-.23.64-.4,1.31-.49,2.02-.09.71-.13,1.5-.13,2.38l.65,10.28c0,.29-.14.55-.43.76-.29.21-.63.32-1.03.32h-14.15c-.4,0-.74-.11-1.03-.32-.29-.21-.43-.47-.43-.76v-4.44c0-.29.14-.55.43-.76.29-.21.63-.32,1.03-.32h4.54v-4.76c0-.67.04-1.35.13-2.04.09-.69.24-1.4.46-2.12.22-.72.52-1.43.92-2.12.25-.43.67-.81,1.24-1.14.58-.33,1.53-.5,2.86-.5ZM723.94,260.35c-.4,0-.74-.11-1.03-.32-.29-.21-.43-.47-.43-.76v-4.84c0-.29.14-.55.43-.76.29-.21.63-.32,1.03-.32h17.44c3.35,0,6.19.32,8.53.96,2.34.64,4.12,1.67,5.35,3.1,1.22,1.43,1.84,3.34,1.84,5.74v11.96c0,.29-.14.55-.43.76-.29.21-.63.32-1.03.32h-9.13c-.4,0-.74-.1-1.03-.3-.29-.2-.43-.45-.43-.74v-11.8c0-1.01-.33-1.77-1-2.26s-1.67-.74-3-.74h-17.12Z" style="fill: gray;"/>
  </g>
  <g style="display: none;">
    <path d="M409.66,221.29c-.46,0-.86-.27-1.2-.81-.34-.54-.5-1.2-.5-1.99v-31.68c0-2.72-.39-4.74-1.16-6.07-.78-1.32-1.94-1.99-3.49-1.99h-16.11c-.46,0-.86-.29-1.2-.86-.34-.57-.5-1.25-.5-2.04v-13c0-.79.17-1.47.5-2.04.33-.57.73-.86,1.2-.86h16.42c5.83,0,10.35,2.08,13.56,6.23,3.21,4.15,4.81,11.17,4.81,21.05v31.15c0,.79-.17,1.47-.5,2.04-.34.57-.73.86-1.2.86h-10.63ZM387.2,221.29c-.46,0-.86-.29-1.2-.86-.34-.57-.5-1.25-.5-2.04v-28.14c0-.79.17-1.47.5-2.04.33-.57.73-.86,1.2-.86h10.63c.46,0,.86.29,1.2.86.34.57.5,1.25.5,2.04v28.14c0,.79-.17,1.47-.5,2.04-.34.57-.73.86-1.2.86h-10.63Z" style="fill: #5b9c00;"/>
    <path d="M444.45,221.29c-.46,0-.86-.27-1.2-.81-.34-.54-.5-1.2-.5-1.99v-31.68c0-2.72-.39-4.74-1.16-6.07-.78-1.32-1.94-1.99-3.49-1.99h-10.51c-.46,0-.86-.29-1.2-.86-.34-.57-.5-1.25-.5-2.04v-13c0-.79.17-1.47.5-2.04.34-.57.73-.86,1.2-.86h10.88c3.9,0,7.21.77,9.94,2.31,2.73,1.54,4.8,4.21,6.23,8,1.43,3.8,2.14,9.09,2.14,15.9v32.22c0,.79-.17,1.47-.5,2.04-.34.57-.73.86-1.2.86h-10.63Z" style="fill: #5b9c00;"/>
    <path d="M463.01,221.29c-.46,0-.86-.29-1.2-.86-.34-.57-.5-1.25-.5-2.04v-13c0-.79.17-1.47.5-2.04.34-.57.73-.86,1.2-.86h14.16v-15.57c0-2.72-.39-4.74-1.16-6.07-.78-1.32-1.94-1.99-3.49-1.99h-8.87c-.46,0-.86-.29-1.2-.86-.34-.57-.5-1.25-.5-2.04v-13.1c0-.79.17-1.47.5-2.04.33-.57.73-.86,1.2-.86h9.19c3.9,0,7.27.82,10.1,2.47,2.83,1.65,5.02,4.44,6.57,8.38,1.55,3.94,2.33,9.38,2.33,16.33v15.36h2.08c.46,0,.86.29,1.2.86.33.57.5,1.25.5,2.04v13c0,.79-.17,1.47-.5,2.04-.34.57-.73.86-1.2.86h-30.89Z" style="fill: #5b9c00;"/>
    <path d="M497.93,178.76c-.46,0-.86-.29-1.2-.86-.34-.57-.5-1.25-.5-2.04v-13c0-.79.17-1.47.5-2.04.34-.57.73-.86,1.2-.86h28.88c.46,0,.86.29,1.2.86.33.57.5,1.25.5,2.04v13c0,.72-.15,1.38-.44,1.99-.29.61-.71.91-1.26.91h-28.88ZM510.64,221.29c-.92,0-1.38-.79-1.38-2.36v-28.35c0-4.87.28-8.54.85-11.01.57-2.47,1.62-3.71,3.18-3.71h13.4c-1.05,0-1.9,1.58-2.55,4.73-.65,3.15-.98,6.98-.98,11.49v26.85c0,.72-.23,1.29-.69,1.72-.46.43-.9.64-1.32.64h-10.51Z" style="fill: #5b9c00;"/>
    <path d="M557.07,221.29c-.46,0-.86-.27-1.2-.81-.34-.54-.5-1.2-.5-1.99v-31.68c0-2.72-.39-4.74-1.16-6.07-.78-1.32-1.94-1.99-3.49-1.99h-16.11c-.46,0-.86-.29-1.2-.86-.34-.57-.5-1.25-.5-2.04v-13c0-.79.17-1.47.5-2.04.33-.57.73-.86,1.2-.86h16.42c5.83,0,10.35,2.08,13.56,6.23,3.21,4.15,4.81,11.17,4.81,21.05v31.15c0,.79-.17,1.47-.5,2.04-.34.57-.73.86-1.2.86h-10.63ZM534.61,221.29c-.46,0-.86-.29-1.2-.86-.34-.57-.5-1.25-.5-2.04v-28.14c0-.79.17-1.47.5-2.04.33-.57.73-.86,1.2-.86h10.63c.46,0,.86.29,1.2.86.34.57.5,1.25.5,2.04v28.14c0,.79-.17,1.47-.5,2.04-.34.57-.73.86-1.2.86h-10.63Z" style="fill: #5b9c00;"/>
    <path d="M610.8,221.29c-.46,0-.86-.27-1.2-.81s-.5-1.2-.5-1.99v-31.68c0-2.72-.39-4.74-1.16-6.07-.78-1.32-1.94-1.99-3.49-1.99h-16.11c-.46,0-.86-.29-1.2-.86-.34-.57-.5-1.25-.5-2.04v-13c0-.79.17-1.47.5-2.04.34-.57.73-.86,1.2-.86h16.42c5.83,0,10.35,2.08,13.56,6.23,3.21,4.15,4.81,11.17,4.81,21.05v31.15c0,.79-.17,1.47-.5,2.04-.34.57-.73.86-1.2.86h-10.63ZM588.34,221.29c-.46,0-.86-.29-1.2-.86-.34-.57-.5-1.25-.5-2.04v-28.14c0-.79.17-1.47.5-2.04.34-.57.73-.86,1.2-.86h10.63c.46,0,.86.29,1.2.86.33.57.5,1.25.5,2.04v28.14c0,.79-.17,1.47-.5,2.04-.34.57-.73.86-1.2.86h-10.63Z" style="fill: #5b9c00;"/>
    <path d="M645.59,221.29c-.46,0-.86-.27-1.2-.81s-.5-1.2-.5-1.99v-31.68c0-2.72-.39-4.74-1.16-6.07-.78-1.32-1.94-1.99-3.49-1.99h-10.51c-.46,0-.86-.29-1.2-.86-.34-.57-.5-1.25-.5-2.04v-13c0-.79.17-1.47.5-2.04.33-.57.73-.86,1.2-.86h10.88c3.9,0,7.21.77,9.94,2.31,2.73,1.54,4.8,4.21,6.23,8,1.43,3.8,2.14,9.09,2.14,15.9v32.22c0,.79-.17,1.47-.5,2.04-.34.57-.73.86-1.2.86h-10.63Z" style="fill: #5b9c00;"/>
    <path d="M664.15,221.29c-.46,0-.86-.29-1.2-.86-.34-.57-.5-1.25-.5-2.04v-13c0-.79.17-1.47.5-2.04.33-.57.73-.86,1.2-.86h14.16v-15.57c0-2.72-.39-4.74-1.16-6.07-.78-1.32-1.94-1.99-3.49-1.99h-8.87c-.46,0-.86-.29-1.2-.86-.34-.57-.5-1.25-.5-2.04v-13.1c0-.79.17-1.47.5-2.04.33-.57.73-.86,1.2-.86h9.19c3.9,0,7.27.82,10.1,2.47,2.83,1.65,5.02,4.44,6.58,8.38,1.55,3.94,2.33,9.38,2.33,16.33v15.36h2.08c.46,0,.86.29,1.2.86.33.57.5,1.25.5,2.04v13c0,.79-.17,1.47-.5,2.04-.34.57-.73.86-1.2.86h-30.89Z" style="fill: #5b9c00;"/>
    <path d="M702.85,221.29c-.46,0-.86-.29-1.2-.86-.34-.57-.5-1.25-.5-2.04v-55.53c0-.79.17-1.47.5-2.04.34-.57.73-.86,1.2-.86h11.26c.46,0,.86.29,1.2.86.33.57.5,1.25.5,2.04v55.53c0,.79-.17,1.47-.5,2.04-.34.57-.73.86-1.2.86h-11.26Z" style="fill: #5b9c00;"/>
    <path d="M740.78,222.9c-.42.14-.82-.2-1.2-1.02-.38-.82-.57-1.63-.57-2.42v-14.93c0-.79.18-1.56.54-2.31.36-.75.74-1.27,1.16-1.56l1.7-1.18c.75-.57,1.47-1.34,2.14-2.31.67-.97,1.22-2.24,1.64-3.81.42-1.57.63-3.54.63-5.91,0-1.79-.11-3.24-.31-4.35-.21-1.11-.59-1.93-1.13-2.47-.55-.54-1.34-.81-2.39-.81h-19.57c-.42,0-.81-.29-1.16-.86-.36-.57-.54-1.25-.54-2.04v-14.29c0-.71.18-1.34.54-1.88.36-.54.74-.81,1.16-.81h22.71c3.69,0,6.65,1.11,8.87,3.33,2.22,2.22,3.84,5.3,4.84,9.24,1.01,3.94,1.51,8.52,1.51,13.75,0,4.73-.49,9.06-1.48,13-.99,3.94-2.34,7.41-4.06,10.42-1.72,3.01-3.65,5.53-5.79,7.57-2.14,2.04-4.38,3.56-6.73,4.56l-2.52,1.07ZM723.42,241.8c-.46,0-.86-.29-1.2-.86-.34-.57-.5-1.25-.5-2.04v-48.65c0-.79.17-1.47.5-2.04.34-.57.73-.86,1.2-.86h10.25c.46,0,.86.29,1.2.86.33.57.5,1.25.5,2.04v48.65c0,.79-.17,1.47-.5,2.04-.34.57-.73.86-1.2.86h-10.25Z" style="fill: #5b9c00;"/>
  </g>
  <g style="display: none;">
    <path d="M409.66,221.29c-.46,0-.86-.27-1.2-.81-.34-.54-.5-1.2-.5-1.99v-31.68c0-2.72-.39-4.74-1.16-6.07-.78-1.32-1.94-1.99-3.49-1.99h-16.11c-.46,0-.86-.29-1.2-.86-.34-.57-.5-1.25-.5-2.04v-13c0-.79.17-1.47.5-2.04.33-.57.73-.86,1.2-.86h16.42c5.83,0,10.35,2.08,13.56,6.23,3.21,4.15,4.81,11.17,4.81,21.05v31.15c0,.79-.17,1.47-.5,2.04-.34.57-.73.86-1.2.86h-10.63ZM387.2,221.29c-.46,0-.86-.29-1.2-.86-.34-.57-.5-1.25-.5-2.04v-28.14c0-.79.17-1.47.5-2.04.33-.57.73-.86,1.2-.86h10.63c.46,0,.86.29,1.2.86.34.57.5,1.25.5,2.04v28.14c0,.79-.17,1.47-.5,2.04-.34.57-.73.86-1.2.86h-10.63Z" style="fill: #5b9c00;"/>
    <path d="M444.45,221.29c-.46,0-.86-.27-1.2-.81-.34-.54-.5-1.2-.5-1.99v-31.68c0-2.72-.39-4.74-1.16-6.07-.78-1.32-1.94-1.99-3.49-1.99h-10.51c-.46,0-.86-.29-1.2-.86-.34-.57-.5-1.25-.5-2.04v-13c0-.79.17-1.47.5-2.04.34-.57.73-.86,1.2-.86h10.88c3.9,0,7.21.77,9.94,2.31,2.73,1.54,4.8,4.21,6.23,8,1.43,3.8,2.14,9.09,2.14,15.9v32.22c0,.79-.17,1.47-.5,2.04-.34.57-.73.86-1.2.86h-10.63Z" style="fill: #5b9c00;"/>
    <path d="M463.01,221.29c-.46,0-.86-.29-1.2-.86-.34-.57-.5-1.25-.5-2.04v-13c0-.79.17-1.47.5-2.04.34-.57.73-.86,1.2-.86h14.16v-15.57c0-2.72-.39-4.74-1.16-6.07-.78-1.32-1.94-1.99-3.49-1.99h-8.87c-.46,0-.86-.29-1.2-.86-.34-.57-.5-1.25-.5-2.04v-13.1c0-.79.17-1.47.5-2.04.33-.57.73-.86,1.2-.86h9.19c3.9,0,7.27.82,10.1,2.47,2.83,1.65,5.02,4.44,6.57,8.38,1.55,3.94,2.33,9.38,2.33,16.33v15.36h2.08c.46,0,.86.29,1.2.86.33.57.5,1.25.5,2.04v13c0,.79-.17,1.47-.5,2.04-.34.57-.73.86-1.2.86h-30.89Z" style="fill: #5b9c00;"/>
    <path d="M497.93,178.76c-.46,0-.86-.29-1.2-.86-.34-.57-.5-1.25-.5-2.04v-13c0-.79.17-1.47.5-2.04.34-.57.73-.86,1.2-.86h28.88c.46,0,.86.29,1.2.86.33.57.5,1.25.5,2.04v13c0,.72-.15,1.38-.44,1.99-.29.61-.71.91-1.26.91h-28.88ZM510.64,221.29c-.92,0-1.38-.79-1.38-2.36v-28.35c0-4.87.28-8.54.85-11.01.57-2.47,1.62-3.71,3.18-3.71h13.4c-1.05,0-1.9,1.58-2.55,4.73-.65,3.15-.98,6.98-.98,11.49v26.85c0,.72-.23,1.29-.69,1.72-.46.43-.9.64-1.32.64h-10.51Z" style="fill: #5b9c00;"/>
    <path d="M557.07,221.29c-.46,0-.86-.27-1.2-.81-.34-.54-.5-1.2-.5-1.99v-31.68c0-2.72-.39-4.74-1.16-6.07-.78-1.32-1.94-1.99-3.49-1.99h-16.11c-.46,0-.86-.29-1.2-.86-.34-.57-.5-1.25-.5-2.04v-13c0-.79.17-1.47.5-2.04.33-.57.73-.86,1.2-.86h16.42c5.83,0,10.35,2.08,13.56,6.23,3.21,4.15,4.81,11.17,4.81,21.05v31.15c0,.79-.17,1.47-.5,2.04-.34.57-.73.86-1.2.86h-10.63ZM534.61,221.29c-.46,0-.86-.29-1.2-.86-.34-.57-.5-1.25-.5-2.04v-28.14c0-.79.17-1.47.5-2.04.33-.57.73-.86,1.2-.86h10.63c.46,0,.86.29,1.2.86.34.57.5,1.25.5,2.04v28.14c0,.79-.17,1.47-.5,2.04-.34.57-.73.86-1.2.86h-10.63Z" style="fill: #5b9c00;"/>
    <path d="M610.8,221.29c-.46,0-.86-.27-1.2-.81s-.5-1.2-.5-1.99v-31.68c0-2.72-.39-4.74-1.16-6.07-.78-1.32-1.94-1.99-3.49-1.99h-16.11c-.46,0-.86-.29-1.2-.86-.34-.57-.5-1.25-.5-2.04v-13c0-.79.17-1.47.5-2.04.34-.57.73-.86,1.2-.86h16.42c5.83,0,10.35,2.08,13.56,6.23,3.21,4.15,4.81,11.17,4.81,21.05v31.15c0,.79-.17,1.47-.5,2.04-.34.57-.73.86-1.2.86h-10.63ZM588.34,221.29c-.46,0-.86-.29-1.2-.86-.34-.57-.5-1.25-.5-2.04v-28.14c0-.79.17-1.47.5-2.04.34-.57.73-.86,1.2-.86h10.63c.46,0,.86.29,1.2.86.33.57.5,1.25.5,2.04v28.14c0,.79-.17,1.47-.5,2.04-.34.57-.73.86-1.2.86h-10.63Z" style="fill: #5b9c00;"/>
    <path d="M645.59,221.29c-.46,0-.86-.27-1.2-.81s-.5-1.2-.5-1.99v-31.68c0-2.72-.39-4.74-1.16-6.07-.78-1.32-1.94-1.99-3.49-1.99h-10.51c-.46,0-.86-.29-1.2-.86-.34-.57-.5-1.25-.5-2.04v-13c0-.79.17-1.47.5-2.04.33-.57.73-.86,1.2-.86h10.88c3.9,0,7.21.77,9.94,2.31,2.73,1.54,4.8,4.21,6.23,8,1.43,3.8,2.14,9.09,2.14,15.9v32.22c0,.79-.17,1.47-.5,2.04-.34.57-.73.86-1.2.86h-10.63Z" style="fill: #5b9c00;"/>
    <path d="M664.15,221.29c-.46,0-.86-.29-1.2-.86-.34-.57-.5-1.25-.5-2.04v-13c0-.79.17-1.47.5-2.04.33-.57.73-.86,1.2-.86h14.16v-15.57c0-2.72-.39-4.74-1.16-6.07-.78-1.32-1.94-1.99-3.49-1.99h-8.87c-.46,0-.86-.29-1.2-.86-.34-.57-.5-1.25-.5-2.04v-13.1c0-.79.17-1.47.5-2.04.33-.57.73-.86,1.2-.86h9.19c3.9,0,7.27.82,10.1,2.47,2.83,1.65,5.02,4.44,6.58,8.38,1.55,3.94,2.33,9.38,2.33,16.33v15.36h2.08c.46,0,.86.29,1.2.86.33.57.5,1.25.5,2.04v13c0,.79-.17,1.47-.5,2.04-.34.57-.73.86-1.2.86h-30.89Z" style="fill: #5b9c00;"/>
    <path d="M702.85,221.29c-.46,0-.86-.29-1.2-.86-.34-.57-.5-1.25-.5-2.04v-55.53c0-.79.17-1.47.5-2.04.34-.57.73-.86,1.2-.86h11.26c.46,0,.86.29,1.2.86.33.57.5,1.25.5,2.04v55.53c0,.79-.17,1.47-.5,2.04-.34.57-.73.86-1.2.86h-11.26Z" style="fill: #5b9c00;"/>
    <path d="M740.78,222.9c-.42.14-.82-.2-1.2-1.02-.38-.82-.57-1.63-.57-2.42v-14.93c0-.79.18-1.56.54-2.31.36-.75.74-1.27,1.16-1.56l1.7-1.18c.75-.57,1.47-1.34,2.14-2.31.67-.97,1.22-2.24,1.64-3.81.42-1.57.63-3.54.63-5.91,0-1.79-.11-3.24-.31-4.35-.21-1.11-.59-1.93-1.13-2.47-.55-.54-1.34-.81-2.39-.81h-19.57c-.42,0-.81-.29-1.16-.86-.36-.57-.54-1.25-.54-2.04v-14.29c0-.71.18-1.34.54-1.88.36-.54.74-.81,1.16-.81h22.71c3.69,0,6.65,1.11,8.87,3.33,2.22,2.22,3.84,5.3,4.84,9.24,1.01,3.94,1.51,8.52,1.51,13.75,0,4.73-.49,9.06-1.48,13-.99,3.94-2.34,7.41-4.06,10.42-1.72,3.01-3.65,5.53-5.79,7.57-2.14,2.04-4.38,3.56-6.73,4.56l-2.52,1.07ZM723.42,241.8c-.46,0-.86-.29-1.2-.86-.34-.57-.5-1.25-.5-2.04v-48.65c0-.79.17-1.47.5-2.04.34-.57.73-.86,1.2-.86h10.25c.46,0,.86.29,1.2.86.33.57.5,1.25.5,2.04v48.65c0,.79-.17,1.47-.5,2.04-.34.57-.73.86-1.2.86h-10.25Z" style="fill: #5b9c00;"/>
  </g>
  <g>
    <path d="M42.66,91.29c-.46,0-.86-.27-1.2-.81-.34-.54-.5-1.2-.5-1.99v-31.68c0-2.72-.39-4.74-1.16-6.07-.78-1.32-1.94-1.99-3.49-1.99h-16.11c-.46,0-.86-.29-1.2-.86-.34-.57-.5-1.25-.5-2.04v-13c0-.79.17-1.47.5-2.04.33-.57.73-.86,1.2-.86h16.42c5.83,0,10.35,2.08,13.56,6.23,3.21,4.15,4.81,11.17,4.81,21.05v31.15c0,.79-.17,1.47-.5,2.04-.34.57-.73.86-1.2.86h-10.63ZM20.2,91.29c-.46,0-.86-.29-1.2-.86-.34-.57-.5-1.25-.5-2.04v-28.14c0-.79.17-1.47.5-2.04.33-.57.73-.86,1.2-.86h10.63c.46,0,.86.29,1.2.86.34.57.5,1.25.5,2.04v28.14c0,.79-.17,1.47-.5,2.04-.34.57-.73.86-1.2.86h-10.63Z" style="fill: #5b9c00;"/>
    <path d="M77.45,91.29c-.46,0-.86-.27-1.2-.81-.34-.54-.5-1.2-.5-1.99v-31.68c0-2.72-.39-4.74-1.16-6.07-.78-1.32-1.94-1.99-3.49-1.99h-10.51c-.46,0-.86-.29-1.2-.86-.34-.57-.5-1.25-.5-2.04v-13c0-.79.17-1.47.5-2.04.34-.57.73-.86,1.2-.86h10.88c3.9,0,7.21.77,9.94,2.31,2.73,1.54,4.8,4.21,6.23,8,1.43,3.8,2.14,9.09,2.14,15.9v32.22c0,.79-.17,1.47-.5,2.04-.34.57-.73.86-1.2.86h-10.63Z" style="fill: #5b9c00;"/>
    <path d="M96.01,91.29c-.46,0-.86-.29-1.2-.86-.34-.57-.5-1.25-.5-2.04v-13c0-.79.17-1.47.5-2.04.34-.57.73-.86,1.2-.86h14.16v-15.57c0-2.72-.39-4.74-1.16-6.07-.78-1.32-1.94-1.99-3.49-1.99h-8.87c-.46,0-.86-.29-1.2-.86-.34-.57-.5-1.25-.5-2.04v-13.1c0-.79.17-1.47.5-2.04.33-.57.73-.86,1.2-.86h9.19c3.9,0,7.27.82,10.1,2.47,2.83,1.65,5.02,4.44,6.57,8.38,1.55,3.94,2.33,9.38,2.33,16.33v15.36h2.08c.46,0,.86.29,1.2.86.33.57.5,1.25.5,2.04v13c0,.79-.17,1.47-.5,2.04-.34.57-.73.86-1.2.86h-30.89Z" style="fill: #5b9c00;"/>
  </g>
  <g>
    <path d="M131.69,48.76c-.46,0-.86-.29-1.2-.86-.34-.57-.5-1.25-.5-2.04v-13c0-.79.17-1.47.5-2.04.34-.57.73-.86,1.2-.86h28.88c.46,0,.86.29,1.2.86.33.57.5,1.25.5,2.04v13c0,.72-.15,1.38-.44,1.99-.29.61-.71.91-1.26.91h-28.88ZM144.4,91.29c-.92,0-1.38-.79-1.38-2.36v-28.35c0-4.87.28-8.54.85-11.01.57-2.47,1.62-3.71,3.18-3.71h13.4c-1.05,0-1.9,1.58-2.55,4.73-.65,3.15-.98,6.98-.98,11.49v26.85c0,.72-.23,1.29-.69,1.72-.46.43-.9.64-1.32.64h-10.51Z" style="fill: #333;"/>
    <path d="M190.83,91.29c-.46,0-.86-.27-1.2-.81-.34-.54-.5-1.2-.5-1.99v-31.68c0-2.72-.39-4.74-1.16-6.07-.78-1.32-1.94-1.99-3.49-1.99h-16.11c-.46,0-.86-.29-1.2-.86-.34-.57-.5-1.25-.5-2.04v-13c0-.79.17-1.47.5-2.04.33-.57.73-.86,1.2-.86h16.42c5.83,0,10.35,2.08,13.56,6.23,3.21,4.15,4.81,11.17,4.81,21.05v31.15c0,.79-.17,1.47-.5,2.04-.34.57-.73.86-1.2.86h-10.63ZM168.37,91.29c-.46,0-.86-.29-1.2-.86-.34-.57-.5-1.25-.5-2.04v-28.14c0-.79.17-1.47.5-2.04.33-.57.73-.86,1.2-.86h10.63c.46,0,.86.29,1.2.86.34.57.5,1.25.5,2.04v28.14c0,.79-.17,1.47-.5,2.04-.34.57-.73.86-1.2.86h-10.63Z" style="fill: #333;"/>
    <path d="M244.56,91.29c-.46,0-.86-.27-1.2-.81-.34-.54-.5-1.2-.5-1.99v-31.68c0-2.72-.39-4.74-1.16-6.07-.78-1.32-1.94-1.99-3.49-1.99h-16.11c-.46,0-.86-.29-1.2-.86-.34-.57-.5-1.25-.5-2.04v-13c0-.79.17-1.47.5-2.04.33-.57.73-.86,1.2-.86h16.42c5.83,0,10.35,2.08,13.56,6.23,3.21,4.15,4.81,11.17,4.81,21.05v31.15c0,.79-.17,1.47-.5,2.04-.34.57-.73.86-1.2.86h-10.63ZM222.1,91.29c-.46,0-.86-.29-1.2-.86-.34-.57-.5-1.25-.5-2.04v-28.14c0-.79.17-1.47.5-2.04.33-.57.73-.86,1.2-.86h10.63c.46,0,.86.29,1.2.86.34.57.5,1.25.5,2.04v28.14c0,.79-.17,1.47-.5,2.04-.34.57-.73.86-1.2.86h-10.63Z" style="fill: #333;"/>
    <path d="M279.35,91.29c-.46,0-.86-.27-1.2-.81-.34-.54-.5-1.2-.5-1.99v-31.68c0-2.72-.39-4.74-1.16-6.07-.78-1.32-1.94-1.99-3.49-1.99h-10.51c-.46,0-.86-.29-1.2-.86-.34-.57-.5-1.25-.5-2.04v-13c0-.79.17-1.47.5-2.04.34-.57.73-.86,1.2-.86h10.88c3.9,0,7.21.77,9.94,2.31,2.73,1.54,4.8,4.21,6.23,8,1.43,3.8,2.14,9.09,2.14,15.9v32.22c0,.79-.17,1.47-.5,2.04-.34.57-.73.86-1.2.86h-10.63Z" style="fill: #333;"/>
    <path d="M297.91,91.29c-.46,0-.86-.29-1.2-.86-.34-.57-.5-1.25-.5-2.04v-13c0-.79.17-1.47.5-2.04.34-.57.73-.86,1.2-.86h14.16v-15.57c0-2.72-.39-4.74-1.16-6.07-.78-1.32-1.94-1.99-3.49-1.99h-8.87c-.46,0-.86-.29-1.2-.86-.34-.57-.5-1.25-.5-2.04v-13.1c0-.79.17-1.47.5-2.04.33-.57.73-.86,1.2-.86h9.19c3.9,0,7.27.82,10.1,2.47,2.83,1.65,5.02,4.44,6.58,8.38,1.55,3.94,2.33,9.38,2.33,16.33v15.36h2.08c.46,0,.86.29,1.2.86.33.57.5,1.25.5,2.04v13c0,.79-.17,1.47-.5,2.04-.34.57-.73.86-1.2.86h-30.89Z" style="fill: #333;"/>
    <path d="M336.6,91.29c-.46,0-.86-.29-1.2-.86-.34-.57-.5-1.25-.5-2.04v-55.53c0-.79.17-1.47.5-2.04.34-.57.73-.86,1.2-.86h11.26c.46,0,.86.29,1.2.86.33.57.5,1.25.5,2.04v55.53c0,.79-.17,1.47-.5,2.04-.34.57-.73.86-1.2.86h-11.26Z" style="fill: #333;"/>
    <path d="M374.54,92.9c-.42.14-.82-.2-1.2-1.02-.38-.82-.57-1.63-.57-2.42v-14.93c0-.79.18-1.56.54-2.31.36-.75.74-1.27,1.16-1.56l1.7-1.18c.75-.57,1.47-1.34,2.14-2.31.67-.97,1.22-2.24,1.64-3.81.42-1.57.63-3.54.63-5.91,0-1.79-.11-3.24-.31-4.35-.21-1.11-.59-1.93-1.13-2.47-.55-.54-1.34-.81-2.39-.81h-19.57c-.42,0-.81-.29-1.16-.86-.36-.57-.54-1.25-.54-2.04v-14.29c0-.71.18-1.34.54-1.88.36-.54.74-.81,1.16-.81h22.71c3.69,0,6.65,1.11,8.87,3.33,2.22,2.22,3.84,5.3,4.84,9.24,1.01,3.94,1.51,8.52,1.51,13.75,0,4.73-.49,9.06-1.48,13-.99,3.94-2.34,7.41-4.06,10.42-1.72,3.01-3.65,5.53-5.79,7.57-2.14,2.04-4.38,3.56-6.73,4.56l-2.52,1.07ZM357.18,111.8c-.46,0-.86-.29-1.2-.86-.34-.57-.5-1.25-.5-2.04v-48.65c0-.79.17-1.47.5-2.04.34-.57.73-.86,1.2-.86h10.25c.46,0,.86.29,1.2.86.33.57.5,1.25.5,2.04v48.65c0,.79-.17,1.47-.5,2.04-.34.57-.73.86-1.2.86h-10.25Z" style="fill: #333;"/>
  </g>
</svg>